<svg width="293" height="512" viewBox="0 0 293 512" fill="none" xmlns="http://www.w3.org/2000/svg">
<g clip-path="url(#clip0_131_74)">
<path d="M101.363 512H188.99V447.925C253.065 432.217 292.571 387.15 292.571 327.307C292.571 266.053 260.452 228.541 185.167 201.859C157.531 191.674 125.577 178.333 125.577 166.379C125.577 150.671 147.36 148.256 160.316 148.256C198.194 148.256 222.432 160.067 236.946 167.12L253.608 175.201L258.894 157.413L279.662 78.3003L268.122 72.7774C252.758 65.4614 228.19 56.3045 191.917 53.1724V0H104.289V59.4843C43.4479 75.503 5.94725 119.136 5.94725 176.421C5.94725 250.274 67.4729 280.685 121.093 298.999C166.641 314.564 172.942 325.801 172.942 335.579C172.942 350.116 152.268 356.619 131.783 356.619C91.8755 356.619 58.6936 341.556 42.5275 332.567L25.2522 323.003L0 422.917V422.941L10.3605 428.727C33.7247 441.829 68.1809 451.057 101.363 454.094V512Z" fill="#316FDE"/>
</g>
<defs>
<clipPath id="clip0_131_74">
<rect width="292.571" height="512" fill="white"/>
</clipPath>
</defs>
</svg>
